ply
format ascii 1.0
comment created by MATLAB plywrite
element vertex 214
property short x
property short y
property short z
element face 316
property list uchar uchar vertex_indices
end_header
0 0 0 
300 0 0 
600 0 0 
900 0 0 
0 0 300 
300 0 300 
600 0 300 
900 0 300 
0 0 600 
300 0 600 
600 0 600 
900 0 600 
0 0 900 
300 0 900 
600 0 900 
900 0 900 
0 0 1200 
300 0 1200 
600 0 1200 
900 0 1200 
0 300 0 
0 600 0 
0 300 300 
0 600 300 
0 300 600 
0 600 600 
0 300 900 
0 600 900 
0 300 1200 
0 600 1200 
450 275 600 
650 275 600 
450 275 900 
650 275 900 
450 295 600 
650 295 600 
450 295 900 
650 295 900 
475 0 620 
495 0 620 
475 0 640 
495 0 640 
475 275 620 
495 275 620 
475 275 640 
495 275 640 
630 0 620 
650 0 620 
630 0 640 
650 0 640 
630 275 620 
650 275 620 
630 275 640 
650 275 640 
475 0 900 
495 0 900 
475 0 920 
495 0 920 
475 275 900 
495 275 900 
475 275 920 
495 275 920 
630 0 900 
650 0 900 
630 0 920 
650 0 920 
630 275 900 
650 275 900 
630 275 920 
650 275 920 
600 100 700 
800 100 700 
600 100 900 
800 100 900 
600 120 700 
800 120 700 
600 120 900 
800 120 900 
600 0 700 
620 0 700 
600 0 720 
620 0 720 
600 100 700 
620 100 700 
600 100 720 
620 100 720 
780 0 700 
800 0 700 
780 0 720 
800 0 720 
780 100 700 
800 100 700 
780 100 720 
800 100 720 
600 0 880 
620 0 880 
600 0 900 
620 0 900 
600 100 880 
620 100 880 
600 100 900 
620 100 900 
780 0 880 
800 0 880 
780 0 900 
800 0 900 
780 100 880 
800 100 880 
780 100 900 
800 100 900 
300 0 600 
320 0 600 
300 0 620 
320 0 620 
150 150 600 
170 150 600 
150 150 620 
170 150 620 
150 0 600 
170 0 600 
150 0 620 
170 0 620 
175 125 600 
195 125 600 
175 125 620 
195 125 620 
300 0 750 
320 0 750 
300 0 770 
320 0 770 
150 150 750 
170 150 750 
150 150 770 
170 150 770 
150 0 750 
170 0 750 
150 0 770 
170 0 770 
175 125 750 
195 125 750 
175 125 770 
195 125 770 
150 75 600 
300 75 600 
150 75 750 
300 75 750 
150 85 600 
300 85 600 
150 85 750 
300 85 750 
170 120 600 
180 120 600 
170 120 750 
180 120 750 
150 145 600 
160 145 600 
150 145 750 
160 145 750 
450 0 1050 
470 0 1050 
450 0 1070 
470 0 1070 
450 150 1200 
470 150 1200 
450 150 1220 
470 150 1220 
450 0 1200 
470 0 1200 
450 0 1220 
470 0 1220 
450 125 1175 
470 125 1175 
450 125 1195 
470 125 1195 
600 0 1050 
620 0 1050 
600 0 1070 
620 0 1070 
600 150 1200 
620 150 1200 
600 150 1220 
620 150 1220 
600 0 1200 
620 0 1200 
600 0 1220 
620 0 1220 
600 125 1175 
620 125 1175 
600 125 1195 
620 125 1195 
450 75 1050 
600 75 1050 
450 75 1200 
600 75 1200 
450 85 1050 
600 85 1050 
450 85 1200 
600 85 1200 
450 120 1180 
600 120 1180 
450 120 1190 
600 120 1190 
450 145 1200 
600 145 1200 
450 145 1210 
600 145 1210 
475 0 225 
575 0 225 
475 0 325 
575 0 325 
500 75 250 
575 75 250 
500 75 325 
575 75 325 
3 5 0 4 
3 5 1 0 
3 6 1 5 
3 6 2 1 
3 7 2 6 
3 7 3 2 
3 9 4 8 
3 9 5 4 
3 10 5 9 
3 10 6 5 
3 11 6 10 
3 11 7 6 
3 13 8 12 
3 13 9 8 
3 14 9 13 
3 14 10 9 
3 15 10 14 
3 15 11 10 
3 17 12 16 
3 17 13 12 
3 18 13 17 
3 18 14 13 
3 19 14 18 
3 19 15 14 
3 4 0 20 
3 4 20 22 
3 8 4 22 
3 8 22 24 
3 12 8 24 
3 12 24 26 
3 16 12 26 
3 16 26 28 
3 22 20 21 
3 22 21 23 
3 24 22 23 
3 24 23 25 
3 26 24 25 
3 26 25 27 
3 28 26 27 
3 28 27 29 
3 30 31 32 
3 31 32 33 
3 34 35 36 
3 35 36 37 
3 30 31 34 
3 31 34 35 
3 31 33 35 
3 33 35 37 
3 32 33 36 
3 33 36 37 
3 30 32 34 
3 32 34 36 
3 38 39 40 
3 39 40 41 
3 42 43 44 
3 43 44 45 
3 38 39 42 
3 39 42 43 
3 39 41 43 
3 41 43 45 
3 40 41 44 
3 41 44 45 
3 38 40 42 
3 40 42 44 
3 46 47 48 
3 47 48 49 
3 50 51 52 
3 51 52 53 
3 46 47 50 
3 47 50 51 
3 47 49 51 
3 49 51 53 
3 48 49 52 
3 49 52 53 
3 46 48 50 
3 48 50 52 
3 54 55 56 
3 55 56 57 
3 58 59 60 
3 59 60 61 
3 54 55 58 
3 55 58 59 
3 55 57 59 
3 57 59 61 
3 56 57 60 
3 57 60 61 
3 54 56 58 
3 56 58 60 
3 62 63 64 
3 63 64 65 
3 66 67 68 
3 67 68 69 
3 62 63 66 
3 63 66 67 
3 63 65 67 
3 65 67 69 
3 64 65 68 
3 65 68 69 
3 62 64 66 
3 64 66 68 
3 70 71 72 
3 71 72 73 
3 74 75 76 
3 75 76 77 
3 70 71 74 
3 71 74 75 
3 71 73 75 
3 73 75 77 
3 72 73 76 
3 73 76 77 
3 70 72 74 
3 72 74 76 
3 78 79 80 
3 79 80 81 
3 82 83 84 
3 83 84 85 
3 78 79 82 
3 79 82 83 
3 79 81 83 
3 81 83 85 
3 80 81 84 
3 81 84 85 
3 78 80 82 
3 80 82 84 
3 86 87 88 
3 87 88 89 
3 90 91 92 
3 91 92 93 
3 86 87 90 
3 87 90 91 
3 87 89 91 
3 89 91 93 
3 88 89 92 
3 89 92 93 
3 86 88 90 
3 88 90 92 
3 94 95 96 
3 95 96 97 
3 98 99 100 
3 99 100 101 
3 94 95 98 
3 95 98 99 
3 95 97 99 
3 97 99 101 
3 96 97 100 
3 97 100 101 
3 94 96 98 
3 96 98 100 
3 102 103 104 
3 103 104 105 
3 106 107 108 
3 107 108 109 
3 102 103 106 
3 103 106 107 
3 103 105 107 
3 105 107 109 
3 104 105 108 
3 105 108 109 
3 102 104 106 
3 104 106 108 
3 110 111 112 
3 111 112 113 
3 114 115 116 
3 115 116 117 
3 110 111 114 
3 111 114 115 
3 111 113 115 
3 113 115 117 
3 112 113 116 
3 113 116 117 
3 110 112 114 
3 112 114 116 
3 118 119 120 
3 119 120 121 
3 122 123 124 
3 123 124 125 
3 118 119 122 
3 119 122 123 
3 119 121 123 
3 121 123 125 
3 120 121 124 
3 121 124 125 
3 118 120 122 
3 120 122 124 
3 126 127 128 
3 127 128 129 
3 130 131 132 
3 131 132 133 
3 126 127 130 
3 127 130 131 
3 127 129 131 
3 129 131 133 
3 128 129 132 
3 129 132 133 
3 126 128 130 
3 128 130 132 
3 134 135 136 
3 135 136 137 
3 138 139 140 
3 139 140 141 
3 134 135 138 
3 135 138 139 
3 135 137 139 
3 137 139 141 
3 136 137 140 
3 137 140 141 
3 134 136 138 
3 136 138 140 
3 142 143 144 
3 143 144 145 
3 146 147 148 
3 147 148 149 
3 142 143 146 
3 143 146 147 
3 143 145 147 
3 145 147 149 
3 144 145 148 
3 145 148 149 
3 142 144 146 
3 144 146 148 
3 150 151 152 
3 151 152 153 
3 154 155 156 
3 155 156 157 
3 150 151 154 
3 151 154 155 
3 151 153 155 
3 153 155 157 
3 152 153 156 
3 153 156 157 
3 150 152 154 
3 152 154 156 
3 158 159 160 
3 159 160 161 
3 162 163 164 
3 163 164 165 
3 158 159 162 
3 159 162 163 
3 159 161 163 
3 161 163 165 
3 160 161 164 
3 161 164 165 
3 158 160 162 
3 160 162 164 
3 166 167 168 
3 167 168 169 
3 170 171 172 
3 171 172 173 
3 166 167 170 
3 167 170 171 
3 167 169 171 
3 169 171 173 
3 168 169 172 
3 169 172 173 
3 166 168 170 
3 168 170 172 
3 174 175 176 
3 175 176 177 
3 178 179 180 
3 179 180 181 
3 174 175 178 
3 175 178 179 
3 175 177 179 
3 177 179 181 
3 176 177 180 
3 177 180 181 
3 174 176 178 
3 176 178 180 
3 182 183 184 
3 183 184 185 
3 186 187 188 
3 187 188 189 
3 182 183 186 
3 183 186 187 
3 183 185 187 
3 185 187 189 
3 184 185 188 
3 185 188 189 
3 182 184 186 
3 184 186 188 
3 190 191 192 
3 191 192 193 
3 194 195 196 
3 195 196 197 
3 190 191 194 
3 191 194 195 
3 191 193 195 
3 193 195 197 
3 192 193 196 
3 193 196 197 
3 190 192 194 
3 192 194 196 
3 198 199 200 
3 199 200 201 
3 202 203 204 
3 203 204 205 
3 198 199 202 
3 199 202 203 
3 199 201 203 
3 201 203 205 
3 200 201 204 
3 201 204 205 
3 198 200 202 
3 200 202 204 
3 206 207 208 
3 207 208 209 
3 210 211 212 
3 211 212 213 
3 206 207 210 
3 207 210 211 
3 207 209 211 
3 209 211 213 
3 208 209 212 
3 209 212 213 
3 206 208 210 
3 208 210 212 
